<svg width="1084" height="300" viewBox="0 0 1084 300" fill="none" xmlns="http://www.w3.org/2000/svg">
<path fill-rule="evenodd" clip-rule="evenodd" d="M336.264 166.253L361.685 203.928C369.047 214.839 381.349 221.379 394.512 221.379L442.048 221.379C444.873 221.379 447.371 219.545 448.216 216.849L457.111 188.466H504.105L513.444 216.93C514.315 219.585 516.792 221.379 519.586 221.379H547.573L506.967 90.1475H459.683C456.849 90.1475 454.346 91.9935 453.508 94.7009L414.789 219.834L381.484 174.596C376.59 168.758 368.537 160.768 359.371 156.822V153.684C362.393 153.269 370.361 148.103 380.082 136.288L384.837 130.143C385.016 129.897 385.196 129.648 385.377 129.397L385.377 129.445L415.927 89.9629H393.414C380.978 89.9629 369.264 95.8047 361.782 105.738L326.666 152.358V103.462C326.666 101.618 325.879 99.8621 324.503 98.6356L316.654 91.6414C315.47 90.5863 313.94 90.0032 312.354 90.0032H300.124C296.554 90.0032 293.66 92.8973 293.66 96.4673L293.66 207.899C293.66 209.713 294.422 211.443 295.76 212.668L303.347 219.611C304.539 220.701 306.096 221.306 307.711 221.306H320.202C323.772 221.306 326.666 218.412 326.666 214.842V152.358L336.264 166.253ZM460.031 170.948L461.428 166.039L480.942 102.514L496.549 156.227L496.593 156.15L501.182 170.947L498.559 170.946C497.765 168.009 495.768 166.434 491.953 166.038L468.663 166.039C464.848 166.435 462.851 168.011 462.057 170.947L460.031 170.948Z" fill="#F03619"/>
<path d="M758.416 221.379V89.9629H805.445C808.224 89.9629 810.692 91.739 811.574 94.3741L843.361 189.279C844.945 194.627 846.572 202.324 846.489 205.375L849 206.13L848.857 193.107V96.427C848.857 92.857 851.751 89.9629 855.321 89.9629H878.205V221.379H831.358C828.58 221.379 826.113 219.605 825.23 216.971L793.58 122.624C791.933 117.272 790.156 109.022 790.243 105.837L787.731 105.082L787.948 124.817V214.915C787.948 218.485 785.054 221.379 781.484 221.379H758.416Z" fill="#F03619"/>
<path fill-rule="evenodd" clip-rule="evenodd" d="M928.569 94.7009L889.371 221.379H917.108C919.933 221.379 922.431 219.545 923.276 216.849L932.172 188.466H979.166L988.504 216.93C989.375 219.585 991.853 221.379 994.646 221.379H1022.63L983.436 94.7009C982.598 91.9935 980.095 90.1475 977.261 90.1475H934.744C931.91 90.1475 929.406 91.9935 928.569 94.7009ZM935.091 170.948L936.489 166.039L956.002 102.514L971.61 156.227L971.653 156.15L976.242 170.947L973.62 170.946C972.825 168.009 970.828 166.434 967.014 166.038L943.723 166.039C939.908 166.435 937.912 168.011 937.117 170.947L935.091 170.948Z" fill="#F03619"/>
<path fill-rule="evenodd" clip-rule="evenodd" d="M617.303 221.379L656.5 94.7009C657.338 91.9935 659.841 90.1475 662.675 90.1475H705.192C708.026 90.1475 710.53 91.9935 711.368 94.7009L750.565 221.379H722.578C719.784 221.379 717.307 219.585 716.436 216.93L707.097 188.466H660.103L651.208 216.849C650.363 219.545 647.865 221.379 645.039 221.379H617.303ZM664.42 166.039L663.023 170.948L665.049 170.947C665.843 168.011 667.84 166.435 671.655 166.039L694.945 166.038C698.76 166.434 700.757 168.009 701.551 170.946L704.174 170.947L699.585 156.15L699.541 156.227L683.934 102.514L664.42 166.039Z" fill="#F03619"/>
<path d="M566.749 203.71V129.917L566.802 129.972V125.291C566.802 119.537 571.949 118.292 575.506 118.389L576.261 115.878L566.222 115.988H530.717C527.857 115.988 525.337 114.109 524.521 111.368L518.206 90.1475H646.669L640.354 111.368C639.538 114.109 637.018 115.988 634.158 115.988H597.942V249.963L579.951 233.584C571.542 225.928 566.749 215.082 566.749 203.71Z" fill="#F03619"/>
<path d="M144.429 70L160.206 148.128L160.212 148.121L238.333 164.251L224.274 178.187C215.003 187.378 201.777 191.372 188.968 188.849L132.006 177.629L186.34 230H136.071L61.667 158.081L83.3253 136.139C84.8386 134.606 87.3036 134.575 88.8552 136.069L130.586 176.262L119.615 119.257C117.148 106.438 121.2 93.2291 130.431 83.9979L144.429 70Z" fill="#F03619"/>
<path d="M191.419 136.173C180.827 136.173 172.24 127.584 172.24 116.99C172.24 106.395 180.827 97.8068 191.419 97.8068C202.011 97.8068 210.597 106.395 210.597 116.99C210.597 127.584 202.011 136.173 191.419 136.173Z" fill="#F03619"/>
</svg>
