<svg width="840" height="300" viewBox="0 0 840 300" fill="none" xmlns="http://www.w3.org/2000/svg">
<path d="M96.1431 110.763L116.716 80C118.461 82.6306 120.697 85.0639 123.375 87.2088C130.472 92.8919 140.097 96.0846 150.134 96.0846C160.17 96.0846 169.796 92.8919 176.892 87.2089C179.262 85.311 181.951 82.2864 183.594 80L203.312 111.38C188.995 122.088 170.137 128.1 150.49 128.172L211.058 128.172C213.235 128.172 215.268 129.258 216.478 131.067L236.09 160.394L63.9092 160.394L82.5782 131.181C83.7762 129.306 85.8474 128.172 88.072 128.172L149.777 128.172C129.757 128.098 110.555 121.857 96.1431 110.763Z" fill="#F03619"/>
<path d="M98.8072 181.884L98.808 220H131.413V164.16C105.48 164.171 99.8354 173.919 98.8072 181.884Z" fill="#F03619"/>
<path d="M203.162 181.926C202.149 173.954 196.531 164.173 170.557 164.161V219.999H203.162L203.162 181.926Z" fill="#F03619"/>
<path d="M337.744 182.039C337.901 159.368 338.531 135.909 340.893 111.191C322.944 114.339 308.302 114.339 293.66 114.339V88.5191H410.324V114.339C395.682 114.339 381.04 114.339 362.934 111.191C365.296 135.909 366.083 159.21 366.241 182.039L366.398 211.324H337.586L337.744 182.039Z" fill="#F03619"/>
<path d="M481.686 214C440.751 214 407.059 188.18 407.059 150.079C407.059 111.978 440.594 86 481.686 86C523.093 86 556.313 112.293 556.313 150.079C556.313 187.55 523.251 214 481.686 214ZM437.445 150.079C437.445 172.435 457.283 187.707 481.843 187.707C506.877 187.707 525.77 171.648 525.77 150.079C525.77 129.139 507.349 112.293 481.843 112.293C456.968 112.293 437.445 128.194 437.445 150.079Z" fill="#F03619"/>
<path d="M570.961 211.324V88.5191H628.113C637.087 88.5191 679.439 88.6765 679.439 129.139C679.439 152.913 658.342 161.1 638.032 161.887V165.036C657.869 180.308 670.465 195.737 683.06 211.324H650.47L614.573 167.397C609.22 166.768 604.024 165.351 596.467 162.202C599.931 179.363 599.931 197.311 599.931 211.324H570.961ZM595.995 111.663C599.773 123.943 599.931 135.909 596.467 149.292L599.458 150.708C607.645 146.458 615.675 146.143 622.76 146.143C632.679 146.143 649.053 143.466 649.053 129.454C649.053 115.914 632.836 113.867 623.232 113.867C616.147 113.867 609.062 113.867 599.458 110.089L595.995 111.663Z" fill="#F03619"/>
<path d="M695.623 211.324V88.5191H724.592V211.324H695.623Z" fill="#F03619"/>
<path d="M747.253 211.324V88.5191H776.222V211.324H747.253Z" fill="#F03619"/>
</svg>
