<svg width="72" height="64" viewBox="0 0 72 64" fill="none" xmlns="http://www.w3.org/2000/svg">
<path d="M0 0V5.26095L0.861945 6.17022L11.9125 16.7909L12.7772 17.5171H16.7471V26.2321H11.2219V32.0421H16.7471V63.9971H22.2724V32.045H49.8989V64H55.4241V32.045H60.9494V26.235H55.4241V17.52H59.2228L60.0875 16.7938L71.1381 6.17312L72 5.26095V0.00290479L68.6323 0.81921C68.5356 0.839544 56.8801 2.99505 36.0856 2.99505C15.2912 2.99505 3.46159 0.839545 3.3649 0.816305L0 0ZM10.6141 7.53266C16.4571 8.14852 24.7975 8.80505 36.0856 8.80505C44.5322 8.82801 52.9745 8.40334 61.3804 7.53266L57.0652 11.71H14.9348L10.6141 7.53266ZM22.2724 17.52H30.5604V26.235H22.2724V17.52ZM41.6109 17.52H49.8989V26.235H41.6109V17.52Z" fill="#FF3000"/>
</svg>
