<svg width="269" height="137" viewBox="0 0 269 137" fill="none" xmlns="http://www.w3.org/2000/svg">
<path d="M97.373 107.444L96.639 111.79H103.143C103.394 111.79 103.586 112.017 103.543 112.266L103.011 115.242C102.975 115.437 102.808 115.577 102.611 115.577H95.931L95.139 120.188H102.557C102.808 120.188 103 120.415 102.957 120.664L102.395 123.875C102.36 124.07 102.192 124.21 101.995 124.21H89.897C89.645 124.21 89.454 123.983 89.497 123.735L92.995 103.784C93.03 103.59 93.197 103.449 93.395 103.449H105.493C105.744 103.449 105.936 103.676 105.893 103.925L105.331 107.109C105.296 107.304 105.128 107.444 104.931 107.444H97.373Z" fill="#FF3000"/>
<path d="M117.223 116.165C117.222 116.164 117.223 116.165 117.223 116.165L121.27 123.61C121.416 123.88 121.222 124.209 120.914 124.209H116.197C116.049 124.209 115.911 124.128 115.841 123.996L113.431 119.539L110.001 124.047C109.925 124.147 109.807 124.207 109.68 124.207H105.182C104.842 124.207 104.653 123.812 104.869 123.548L110.871 116.152C111.126 115.838 111.167 115.401 110.974 115.046L107.386 108.421C107.24 108.151 107.435 107.824 107.743 107.824H112.459C112.608 107.824 112.745 107.905 112.816 108.038L115.198 112.435L118.599 107.984C118.674 107.884 118.793 107.824 118.92 107.824H123.399C123.744 107.824 123.931 108.227 123.709 108.491L117.223 116.165C117.224 116.165 117.223 116.165 117.223 116.165Z" fill="#FF3000"/>
<path d="M136.294 108.486C137.145 109.064 137.688 109.831 137.923 110.79L138.393 108.159C138.428 107.965 138.595 107.824 138.792 107.824H142.99C143.241 107.824 143.433 108.051 143.39 108.3L140.626 123.875C140.591 124.069 140.424 124.209 140.227 124.209H136.034C135.781 124.209 135.589 123.98 135.637 123.729L136.105 121.244C135.519 122.221 134.719 122.997 133.712 123.564C132.704 124.131 131.561 124.415 130.289 124.415C128.509 124.415 127.099 123.842 126.062 122.697C125.025 121.552 124.506 119.961 124.506 117.927C124.506 117.124 124.574 116.341 124.711 115.577C125.006 113.953 125.557 112.538 126.37 111.333C127.183 110.129 128.172 109.21 129.336 108.573C130.5 107.938 131.737 107.619 133.05 107.619C134.362 107.619 135.443 107.908 136.294 108.486ZM131.332 113.081C130.538 113.786 130.035 114.764 129.819 116.017C129.76 116.368 129.73 116.692 129.73 116.987C129.73 117.946 130 118.691 130.538 119.218C131.075 119.747 131.796 120.012 132.696 120.012C133.752 120.012 134.681 119.65 135.486 118.926C136.288 118.202 136.796 117.232 137.012 116.02C137.072 115.687 137.101 115.374 137.101 115.08C137.101 114.121 136.831 113.373 136.294 112.832C135.756 112.295 135.035 112.025 134.136 112.025C133.058 112.025 132.123 112.376 131.332 113.081Z" fill="#FF3000"/>
<path d="M172.749 109.028C173.688 109.949 174.158 111.251 174.158 112.933C174.158 113.598 174.109 114.187 174.012 114.695L172.397 123.873C172.362 124.067 172.194 124.208 171.997 124.208H167.8C167.548 124.208 167.357 123.981 167.4 123.732L168.902 115.281C168.94 115.105 168.961 114.84 168.961 114.489C168.961 113.687 168.732 113.071 168.272 112.639C167.813 112.209 167.17 111.993 166.349 111.993C165.371 111.993 164.542 112.293 163.867 112.89C163.192 113.487 162.757 114.324 162.559 115.4L162.536 115.47C162.532 115.482 162.53 115.495 162.53 115.508C162.53 115.515 162.529 115.522 162.528 115.529L161.033 123.876C160.998 124.067 160.831 124.208 160.634 124.208H156.463C156.212 124.208 156.02 123.981 156.063 123.732L157.538 115.281C157.598 114.986 157.627 114.713 157.627 114.46C157.627 113.676 157.398 113.071 156.938 112.639C156.479 112.209 155.836 111.993 155.015 111.993C154.037 111.993 153.2 112.301 152.506 112.917C151.812 113.533 151.366 114.4 151.169 115.516L149.699 123.873C149.664 124.067 149.497 124.208 149.3 124.208H145.072C144.821 124.208 144.629 123.981 144.673 123.732L147.409 108.158C147.444 107.963 147.611 107.823 147.809 107.823H152.036C152.287 107.823 152.479 108.05 152.436 108.298L152.022 110.61C152.63 109.689 153.422 108.965 154.399 108.439C155.377 107.909 156.455 107.645 157.63 107.645C158.883 107.645 159.939 107.934 160.801 108.512C161.663 109.09 162.249 109.916 162.562 110.994C163.286 109.976 164.196 109.163 165.293 108.558C166.39 107.95 167.543 107.647 168.759 107.647C170.481 107.647 171.81 108.106 172.75 109.027C172.75 109.027 172.75 109.028 172.749 109.028Z" fill="#FF3000"/>
<path d="M193.609 109.294L193.61 109.294C194.657 110.41 195.181 111.957 195.181 113.934C195.181 114.579 195.122 115.273 195.005 116.019C194.692 117.721 194.119 119.209 193.287 120.481C192.456 121.753 191.443 122.728 190.249 123.404C189.055 124.079 187.791 124.417 186.462 124.417C185.133 124.417 184.158 124.133 183.364 123.566C182.572 122.999 182.056 122.226 181.821 121.246L179.971 131.688C179.936 131.883 179.768 132.023 179.571 132.023H175.344C175.093 132.023 174.901 131.796 174.944 131.548L179.088 108.161C179.123 107.967 179.29 107.826 179.487 107.826H183.685C183.936 107.826 184.128 108.053 184.085 108.302L183.642 110.792C184.228 109.814 185.022 109.039 186.019 108.472C187.018 107.905 188.153 107.621 189.425 107.621C191.167 107.621 192.56 108.18 193.608 109.295L193.609 109.294ZM188.369 118.954L188.37 118.951C189.152 118.246 189.66 117.269 189.895 116.016C189.954 115.665 189.984 115.341 189.984 115.046C189.984 114.088 189.714 113.342 189.176 112.815C188.639 112.286 187.918 112.021 187.018 112.021C185.962 112.021 185.03 112.378 184.228 113.094C183.426 113.809 182.915 114.782 182.702 116.016C182.642 116.329 182.613 116.643 182.613 116.956C182.613 117.915 182.883 118.663 183.42 119.203C183.958 119.741 184.679 120.011 185.578 120.011C186.656 120.011 187.585 119.66 188.368 118.956L188.369 118.954Z" fill="#FF3000"/>
<path d="M205.578 102.956L201.901 123.873C201.866 124.068 201.699 124.208 201.502 124.208H197.274C197.023 124.208 196.831 123.981 196.875 123.733L200.551 102.815C200.586 102.621 200.753 102.48 200.951 102.48H205.178C205.429 102.48 205.621 102.707 205.578 102.956Z" fill="#FF3000"/>
<path d="M221.12 109.336C221.122 109.337 221.123 109.338 221.125 109.34C222.347 110.485 222.957 112.016 222.957 113.932C222.957 114.383 222.908 114.932 222.811 115.577C222.749 115.953 222.654 116.315 222.53 116.666C222.473 116.825 222.319 116.928 222.149 116.928H211.066C211.026 117.32 211.007 117.584 211.007 117.719C211.007 119.502 211.858 120.391 213.562 120.391C214.286 120.391 214.932 120.204 215.499 119.832C215.996 119.507 216.371 119.1 216.628 118.608C216.698 118.473 216.847 118.392 216.998 118.392H221.444C221.736 118.392 221.933 118.692 221.817 118.959C221.15 120.483 220.104 121.741 218.681 122.735C217.084 123.851 215.221 124.41 213.087 124.41C210.953 124.41 209.294 123.824 208.052 122.649C206.809 121.474 206.188 119.851 206.188 117.776C206.188 117.149 206.247 116.485 206.364 115.78C206.658 114.116 207.263 112.668 208.184 111.434C209.105 110.199 210.245 109.257 211.604 108.6C212.965 107.944 214.448 107.617 216.053 107.617C218.204 107.617 219.891 108.189 221.115 109.333C221.115 109.333 221.118 109.336 221.12 109.336ZM217.935 113.935C217.935 113.152 217.689 112.566 217.201 112.174C216.712 111.782 216.093 111.588 215.35 111.588C214.429 111.588 213.619 111.863 212.914 112.409C212.209 112.957 211.72 113.759 211.444 114.816H217.846C217.906 114.483 217.935 114.189 217.935 113.935Z" fill="#FF3000"/>
<path d="M59.052 108.344L59.053 108.343C60.157 109.007 61.024 109.969 61.65 111.219C62.277 112.472 62.59 113.939 62.59 115.625C62.59 117.31 62.277 118.806 61.65 120.06C61.024 121.313 60.157 122.272 59.052 122.936C57.944 123.601 56.688 123.936 55.278 123.936C53.8684 123.936 52.5583 123.574 51.5184 122.85C50.4812 122.126 49.7573 121.167 49.3467 119.973V123.325C49.3467 123.55 49.1657 123.73 48.9415 123.73H46.4052C46.181 123.73 46 123.55 46 123.325V102.405C46 102.181 46.181 102 46.4052 102H48.9415C49.1657 102 49.3467 102.181 49.3467 102.405V111.308C49.7573 110.114 50.4812 109.155 51.5184 108.431C52.5556 107.708 53.8089 107.346 55.278 107.346C56.747 107.346 57.944 107.678 59.051 108.344L59.052 108.344ZM51.7237 110.942L51.7225 110.941C50.9776 111.382 50.3918 112.008 49.9625 112.821C49.5304 113.634 49.317 114.568 49.317 115.625C49.317 116.681 49.5331 117.64 49.9625 118.444C50.392 119.247 50.9809 119.868 51.7237 120.308C52.4665 120.749 53.3092 120.97 54.249 120.97C55.738 120.97 56.931 120.495 57.831 119.547C58.73 118.598 59.181 117.291 59.181 115.627C59.181 113.963 58.73 112.68 57.831 111.721C56.931 110.762 55.735 110.282 54.249 110.282C53.3097 110.282 52.4674 110.5 51.7248 110.943L51.7237 110.942Z" fill="#111C46"/>
<path d="M67.831 107.801V107.804L72.574 119.442L76.968 107.811C77.028 107.654 77.179 107.549 77.347 107.549H80.191C80.48 107.549 80.674 107.841 80.566 108.108L71.12 131.17C71.058 131.321 70.91 131.421 70.745 131.421H67.903C67.612 131.421 67.417 131.122 67.531 130.854L70.609 123.742C70.718 123.489 70.718 123.202 70.609 122.948L64.211 108.113C64.095 107.846 64.292 107.549 64.584 107.549H67.455C67.619 107.549 67.768 107.648 67.83 107.799L67.831 107.801Z" fill="#111C46"/>
<path fill-rule="evenodd" clip-rule="evenodd" d="M121 75C113.842 75 108 79.2618 108 85.5136C108 91.7655 113.76 96 121 96C128.24 96 134 91.7155 134 85.5136C134 79.3118 128.158 75 121 75ZM121.029 79.3163C125.471 79.3163 128.679 82.0788 128.679 85.5136C128.679 89.053 125.307 91.6882 121.029 91.6882C116.75 91.6882 113.296 89.103 113.296 85.5136C113.296 81.9243 116.586 79.3163 121.029 79.3163Z" fill="#111C46"/>
<path fill-rule="evenodd" clip-rule="evenodd" d="M82 76V96H92.6578C100.413 96 105 91.8196 105 85.8715C105 80.46 101.24 76 92.347 76H82ZM92.0312 91.7926C90.5523 91.7926 88.9231 91.7926 87.1585 92.5096V92.5141L86.5619 92C87.6999 88.0496 87.6698 83.973 86.5318 79.77L87.1585 79.513C88.6373 80.2029 89.8104 80.2029 91.0336 80.2029C94.3973 80.2029 99.5007 80.2029 99.5007 86.0744C99.5007 90.9718 95.7358 91.7926 92.0312 91.7926Z" fill="#111C46"/>
<path fill-rule="evenodd" clip-rule="evenodd" d="M160 85.5136C160 79.2618 166.066 75 173.5 75C180.934 75 187 79.3118 187 85.5136C187 91.7155 181.019 96 173.5 96C165.981 96 160 91.7655 160 85.5136ZM181.475 85.5136C181.475 82.0788 178.144 79.3163 173.53 79.3163C168.917 79.3163 165.5 81.9243 165.5 85.5136C165.5 89.103 169.087 91.6882 173.53 91.6882C177.973 91.6882 181.475 89.053 181.475 85.5136Z" fill="#111C46"/>
<path d="M137 76L156 76.022V87.8033C156 89.9859 156 96 147.012 96C141.393 96 137 93.4956 137 89.1085V85.8501L142.331 85.7839V88.4559C142.331 90.3122 144 91.8157 146.75 91.8157C150.35 91.8157 150.643 89.7831 150.643 88.4295V83.3589C150.643 82.0547 150.915 81.0177 151.395 79.7831C151.401 79.7698 151.395 79.761 151.38 79.7566C151.262 79.7118 150.798 79.4524 150.685 79.5009C149.389 80.0748 147.995 80.2152 146.559 80.2152H137V76Z" fill="#111C46"/>
<path d="M99 5V10.261L99.8619 11.1702L110.913 21.7909L111.777 22.5171H115.747V31.2321H110.222V37.0421H115.747V68.9971H121.272V37.045H148.899V69H154.424V37.045H159.949V31.235H154.424V22.52H158.223L159.087 21.7938L170.138 11.1731L171 10.261V5.0029L167.632 5.81921C167.536 5.83954 155.88 7.99505 135.086 7.99505C114.291 7.99505 102.462 5.83954 102.365 5.8163L99 5ZM109.614 12.5327C115.457 13.1485 123.797 13.805 135.086 13.805C143.532 13.828 151.974 13.4033 160.38 12.5327L156.065 16.71H113.935L109.614 12.5327ZM121.272 22.52H129.56V31.235H121.272V22.52ZM140.611 22.52H148.899V31.235H140.611V22.52Z" fill="#FF3000"/>
</svg>
