<svg width="269" height="137" viewBox="0 0 269 137" fill="none" xmlns="http://www.w3.org/2000/svg">
<path d="M107.373 105.444L106.639 109.79H113.143C113.394 109.79 113.586 110.017 113.543 110.266L113.011 113.242C112.975 113.437 112.808 113.577 112.611 113.577H105.931L105.139 118.188H112.557C112.808 118.188 113 118.415 112.957 118.664L112.395 121.875C112.36 122.07 112.192 122.21 111.995 122.21H99.897C99.645 122.21 99.454 121.983 99.497 121.735L102.995 101.784C103.03 101.59 103.197 101.449 103.395 101.449H115.493C115.744 101.449 115.936 101.676 115.893 101.925L115.331 105.109C115.296 105.304 115.128 105.444 114.931 105.444H107.373Z" fill="#FF3000"/>
<path d="M127.223 114.165C127.222 114.164 127.223 114.165 127.223 114.165L131.27 121.61C131.416 121.88 131.222 122.209 130.914 122.209H126.197C126.049 122.209 125.911 122.128 125.841 121.996L123.431 117.539L120.001 122.047C119.925 122.147 119.807 122.207 119.68 122.207H115.182C114.842 122.207 114.653 121.812 114.869 121.548L120.871 114.152C121.126 113.838 121.167 113.401 120.974 113.046L117.386 106.421C117.24 106.151 117.435 105.824 117.743 105.824H122.459C122.608 105.824 122.745 105.905 122.816 106.038L125.198 110.435L128.599 105.984C128.674 105.884 128.793 105.824 128.92 105.824H133.399C133.744 105.824 133.931 106.227 133.709 106.491L127.223 114.165C127.224 114.165 127.223 114.165 127.223 114.165Z" fill="#FF3000"/>
<path d="M146.294 106.486C147.145 107.064 147.688 107.831 147.923 108.79L148.393 106.159C148.428 105.965 148.595 105.824 148.792 105.824H152.99C153.241 105.824 153.433 106.051 153.39 106.3L150.626 121.875C150.591 122.069 150.424 122.209 150.227 122.209H146.034C145.781 122.209 145.589 121.98 145.637 121.729L146.105 119.244C145.519 120.221 144.719 120.997 143.712 121.564C142.704 122.131 141.561 122.415 140.289 122.415C138.509 122.415 137.099 121.842 136.062 120.697C135.025 119.552 134.506 117.961 134.506 115.927C134.506 115.124 134.574 114.341 134.711 113.577C135.006 111.953 135.557 110.538 136.37 109.333C137.183 108.129 138.172 107.21 139.336 106.573C140.5 105.938 141.737 105.619 143.05 105.619C144.362 105.619 145.443 105.908 146.294 106.486ZM141.332 111.081C140.538 111.786 140.035 112.764 139.819 114.017C139.76 114.368 139.73 114.692 139.73 114.987C139.73 115.946 140 116.691 140.538 117.218C141.075 117.747 141.796 118.012 142.696 118.012C143.752 118.012 144.681 117.65 145.486 116.926C146.288 116.202 146.796 115.232 147.012 114.02C147.072 113.687 147.101 113.374 147.101 113.08C147.101 112.121 146.831 111.373 146.294 110.832C145.756 110.295 145.035 110.025 144.136 110.025C143.058 110.025 142.123 110.376 141.332 111.081Z" fill="#FF3000"/>
<path d="M182.749 107.028C183.688 107.949 184.158 109.251 184.158 110.933C184.158 111.598 184.109 112.187 184.012 112.695L182.397 121.873C182.362 122.067 182.194 122.208 181.997 122.208H177.8C177.548 122.208 177.357 121.981 177.4 121.732L178.902 113.281C178.94 113.105 178.961 112.84 178.961 112.489C178.961 111.687 178.732 111.071 178.272 110.639C177.813 110.209 177.17 109.993 176.349 109.993C175.371 109.993 174.542 110.293 173.867 110.89C173.192 111.487 172.757 112.324 172.559 113.4L172.536 113.47C172.532 113.482 172.53 113.495 172.53 113.508C172.53 113.515 172.529 113.522 172.528 113.529L171.033 121.876C170.998 122.067 170.831 122.208 170.634 122.208H166.463C166.212 122.208 166.02 121.981 166.063 121.732L167.538 113.281C167.598 112.986 167.627 112.713 167.627 112.46C167.627 111.676 167.398 111.071 166.938 110.639C166.479 110.209 165.836 109.993 165.015 109.993C164.037 109.993 163.2 110.301 162.506 110.917C161.812 111.533 161.366 112.4 161.169 113.516L159.699 121.873C159.664 122.067 159.497 122.208 159.3 122.208H155.072C154.821 122.208 154.629 121.981 154.673 121.732L157.409 106.158C157.444 105.963 157.611 105.823 157.809 105.823H162.036C162.287 105.823 162.479 106.05 162.436 106.298L162.022 108.61C162.63 107.689 163.422 106.965 164.399 106.439C165.377 105.909 166.455 105.645 167.63 105.645C168.883 105.645 169.939 105.934 170.801 106.512C171.663 107.09 172.249 107.916 172.562 108.994C173.286 107.976 174.196 107.163 175.293 106.558C176.39 105.95 177.543 105.647 178.759 105.647C180.481 105.647 181.81 106.106 182.75 107.027C182.75 107.027 182.75 107.028 182.749 107.028Z" fill="#FF3000"/>
<path d="M203.609 107.294L203.61 107.294C204.657 108.41 205.181 109.957 205.181 111.934C205.181 112.579 205.122 113.273 205.005 114.019C204.692 115.721 204.119 117.209 203.287 118.481C202.456 119.753 201.443 120.728 200.249 121.404C199.055 122.079 197.791 122.417 196.462 122.417C195.133 122.417 194.158 122.133 193.364 121.566C192.572 120.999 192.056 120.226 191.821 119.246L189.971 129.688C189.936 129.883 189.768 130.023 189.571 130.023H185.344C185.093 130.023 184.901 129.796 184.944 129.548L189.088 106.161C189.123 105.967 189.29 105.826 189.487 105.826H193.685C193.936 105.826 194.128 106.053 194.085 106.302L193.642 108.792C194.228 107.814 195.022 107.039 196.019 106.472C197.018 105.905 198.153 105.621 199.425 105.621C201.167 105.621 202.56 106.18 203.608 107.295L203.609 107.294ZM198.369 116.954L198.37 116.951C199.152 116.246 199.66 115.269 199.895 114.016C199.954 113.665 199.984 113.341 199.984 113.046C199.984 112.088 199.714 111.342 199.176 110.815C198.639 110.286 197.918 110.021 197.018 110.021C195.962 110.021 195.03 110.378 194.228 111.094C193.426 111.809 192.915 112.782 192.702 114.016C192.642 114.329 192.613 114.643 192.613 114.956C192.613 115.915 192.883 116.663 193.42 117.203C193.958 117.741 194.679 118.011 195.578 118.011C196.656 118.011 197.585 117.66 198.368 116.956L198.369 116.954Z" fill="#FF3000"/>
<path d="M215.578 100.956L211.901 121.873C211.866 122.068 211.699 122.208 211.502 122.208H207.274C207.023 122.208 206.831 121.981 206.875 121.733L210.551 100.815C210.586 100.621 210.753 100.48 210.951 100.48H215.178C215.429 100.48 215.621 100.707 215.578 100.956Z" fill="#FF3000"/>
<path d="M231.12 107.336C231.122 107.337 231.123 107.338 231.125 107.34C232.347 108.485 232.957 110.016 232.957 111.932C232.957 112.383 232.908 112.932 232.811 113.577C232.749 113.953 232.654 114.315 232.53 114.666C232.473 114.825 232.319 114.928 232.149 114.928H221.066C221.026 115.32 221.007 115.584 221.007 115.719C221.007 117.502 221.858 118.391 223.562 118.391C224.286 118.391 224.932 118.204 225.499 117.832C225.996 117.507 226.371 117.1 226.628 116.608C226.698 116.473 226.847 116.392 226.998 116.392H231.444C231.736 116.392 231.933 116.692 231.817 116.959C231.15 118.483 230.104 119.741 228.681 120.735C227.084 121.851 225.221 122.41 223.087 122.41C220.953 122.41 219.294 121.824 218.052 120.649C216.809 119.474 216.188 117.851 216.188 115.776C216.188 115.149 216.247 114.485 216.364 113.78C216.658 112.116 217.263 110.668 218.184 109.434C219.105 108.199 220.245 107.257 221.604 106.6C222.965 105.944 224.448 105.617 226.053 105.617C228.204 105.617 229.891 106.189 231.115 107.333C231.115 107.333 231.118 107.336 231.12 107.336ZM227.935 111.935C227.935 111.152 227.689 110.566 227.201 110.174C226.712 109.782 226.093 109.588 225.35 109.588C224.429 109.588 223.619 109.863 222.914 110.409C222.209 110.957 221.72 111.759 221.444 112.816H227.846C227.906 112.483 227.935 112.189 227.935 111.935Z" fill="#FF3000"/>
<path d="M69.052 106.344L69.053 106.343C70.157 107.007 71.024 107.969 71.65 109.219C72.277 110.472 72.59 111.939 72.59 113.625C72.59 115.31 72.277 116.806 71.65 118.06C71.024 119.313 70.157 120.272 69.052 120.936C67.944 121.601 66.688 121.936 65.278 121.936C63.8684 121.936 62.5583 121.574 61.5184 120.85C60.4812 120.126 59.7573 119.167 59.3467 117.973V121.325C59.3467 121.55 59.1657 121.73 58.9415 121.73H56.4052C56.181 121.73 56 121.55 56 121.325V100.405C56 100.181 56.181 100 56.4052 100H58.9415C59.1657 100 59.3467 100.181 59.3467 100.405V109.308C59.7573 108.114 60.4812 107.155 61.5184 106.431C62.5556 105.708 63.8089 105.346 65.278 105.346C66.747 105.346 67.944 105.678 69.051 106.344L69.052 106.344ZM61.7237 108.942L61.7225 108.941C60.9776 109.382 60.3918 110.008 59.9625 110.821C59.5304 111.634 59.317 112.568 59.317 113.625C59.317 114.681 59.5331 115.64 59.9625 116.444C60.392 117.247 60.9809 117.868 61.7237 118.308C62.4665 118.749 63.3092 118.97 64.249 118.97C65.738 118.97 66.931 118.495 67.831 117.547C68.73 116.598 69.181 115.291 69.181 113.627C69.181 111.963 68.73 110.68 67.831 109.721C66.931 108.762 65.735 108.282 64.249 108.282C63.3097 108.282 62.4674 108.5 61.7248 108.943L61.7237 108.942Z" fill="white"/>
<path d="M77.831 105.801V105.804L82.574 117.442L86.968 105.811C87.028 105.654 87.179 105.549 87.347 105.549H90.191C90.48 105.549 90.674 105.841 90.566 106.108L81.12 129.17C81.058 129.321 80.91 129.421 80.745 129.421H77.903C77.612 129.421 77.417 129.122 77.531 128.854L80.609 121.742C80.718 121.489 80.718 121.202 80.609 120.948L74.211 106.113C74.095 105.846 74.292 105.549 74.584 105.549H77.455C77.619 105.549 77.768 105.648 77.83 105.799L77.831 105.801Z" fill="white"/>
<path fill-rule="evenodd" clip-rule="evenodd" d="M131 73C123.842 73 118 77.2618 118 83.5136C118 89.7655 123.76 94 131 94C138.24 94 144 89.7155 144 83.5136C144 77.3118 138.158 73 131 73ZM131.029 77.3163C135.471 77.3163 138.679 80.0788 138.679 83.5136C138.679 87.053 135.307 89.6882 131.029 89.6882C126.75 89.6882 123.296 87.103 123.296 83.5136C123.296 79.9243 126.586 77.3163 131.029 77.3163Z" fill="white"/>
<path fill-rule="evenodd" clip-rule="evenodd" d="M92 74V94H102.658C110.413 94 115 89.8196 115 83.8715C115 78.46 111.24 74 102.347 74H92ZM102.031 89.7926C100.552 89.7926 98.9231 89.7926 97.1585 90.5096V90.5141L96.5619 90C97.6999 86.0496 97.6698 81.973 96.5318 77.77L97.1585 77.513C98.6373 78.2029 99.8104 78.2029 101.034 78.2029C104.397 78.2029 109.501 78.2029 109.501 84.0744C109.501 88.9718 105.736 89.7926 102.031 89.7926Z" fill="white"/>
<path fill-rule="evenodd" clip-rule="evenodd" d="M170 83.5136C170 77.2618 176.066 73 183.5 73C190.934 73 197 77.3118 197 83.5136C197 89.7155 191.019 94 183.5 94C175.981 94 170 89.7655 170 83.5136ZM191.475 83.5136C191.475 80.0788 188.144 77.3163 183.53 77.3163C178.917 77.3163 175.5 79.9243 175.5 83.5136C175.5 87.103 179.087 89.6882 183.53 89.6882C187.973 89.6882 191.475 87.053 191.475 83.5136Z" fill="white"/>
<path d="M147 74L166 74.022V85.8033C166 87.9859 166 94 157.012 94C151.393 94 147 91.4956 147 87.1085V83.8501L152.331 83.7839V86.4559C152.331 88.3122 154 89.8157 156.75 89.8157C160.35 89.8157 160.643 87.7831 160.643 86.4295V81.3589C160.643 80.0547 160.915 79.0177 161.395 77.7831C161.401 77.7698 161.395 77.761 161.38 77.7566C161.262 77.7118 160.798 77.4524 160.685 77.5009C159.389 78.0748 157.995 78.2152 156.559 78.2152H147V74Z" fill="white"/>
<path d="M109 3V8.26095L109.862 9.17022L120.913 19.7909L121.777 20.5171H125.747V29.2321H120.222V35.0421H125.747V66.9971H131.272V35.045H158.899V67H164.424V35.045H169.949V29.235H164.424V20.52H168.223L169.087 19.7938L180.138 9.17312L181 8.26095V3.0029L177.632 3.81921C177.536 3.83954 165.88 5.99505 145.086 5.99505C124.291 5.99505 112.462 3.83954 112.365 3.8163L109 3ZM119.614 10.5327C125.457 11.1485 133.797 11.805 145.086 11.805C153.532 11.828 161.974 11.4033 170.38 10.5327L166.065 14.71H123.935L119.614 10.5327ZM131.272 20.52H139.56V29.235H131.272V20.52ZM150.611 20.52H158.899V29.235H150.611V20.52Z" fill="#FF3000"/>
</svg>
