<svg width="1221" height="300" viewBox="0 0 1221 300" fill="none" xmlns="http://www.w3.org/2000/svg">
<path d="M149.695 178.375L50 85.7083H109.389C119.353 85.7083 128.992 89.2489 136.587 95.6982L202.834 151.954L176.91 177.878C169.45 185.338 157.423 185.558 149.695 178.375Z" fill="#F03619"/>
<path d="M204.565 150.225L181.597 130.325C173.914 123.669 173.852 111.769 181.466 105.034L204.565 84.5983V150.225Z" fill="#F03619"/>
<path d="M146.217 178.993L123.895 157.892V227.961L145.998 207.695C154.386 200.004 154.487 186.811 146.217 178.993Z" fill="#F03619"/>
<path d="M206.806 84.0381L206.806 105.003C206.806 117.28 216.758 127.232 229.035 127.232H250L206.806 84.0381Z" fill="#F03619"/>
<path d="M368.287 214C327.353 214 293.66 188.18 293.66 150.079C293.66 111.978 327.195 86 368.287 86C409.695 86 442.915 112.293 442.915 150.079C442.915 187.55 409.852 214 368.287 214ZM324.046 150.079C324.046 172.435 343.884 187.707 368.445 187.707C393.478 187.707 412.371 171.648 412.371 150.079C412.371 129.139 393.95 112.293 368.445 112.293C343.569 112.293 324.046 128.194 324.046 150.079Z" fill="#F03619"/>
<path d="M457.563 211.324V88.5191H514.714C523.688 88.5191 566.04 88.6765 566.04 129.139C566.04 152.913 544.943 161.1 524.633 161.887V165.036C544.471 180.308 557.066 195.737 569.661 211.324H537.071L501.174 167.397C495.821 166.768 490.626 165.351 483.069 162.202C486.532 179.363 486.532 197.311 486.532 211.324H457.563ZM482.596 111.663C486.375 123.943 486.532 135.909 483.069 149.292L486.06 150.708C494.247 146.458 502.276 146.143 509.361 146.143C519.28 146.143 535.654 143.466 535.654 129.454C535.654 115.914 519.438 113.867 509.834 113.867C502.749 113.867 495.664 113.867 486.06 110.089L482.596 111.663Z" fill="#F03619"/>
<path d="M582.225 211.324V88.5191H611.194V211.324H582.225Z" fill="#F03619"/>
<path d="M698.406 214C656.211 214 625.982 187.392 625.982 149.921C625.982 108.986 660.934 86 700.925 86C733.83 86 759.178 103.319 768.782 125.518L742.017 135.909C734.617 122.999 721.549 112.293 700.925 112.293C676.049 112.293 656.211 126.777 656.211 150.708C656.211 179.993 683.606 187.707 703.601 187.707C723.281 187.707 739.813 182.039 753.038 165.036L749.889 161.887C732.885 168.972 716.669 168.972 704.703 168.972V146.3H771.773V211.324H749.732C749.259 206.285 747.842 201.72 751.621 192.903L747.212 191.328C736.664 207.86 720.447 214 698.406 214Z" fill="#F03619"/>
<path d="M775.075 211.324L830.809 88.5191H864.659L920.393 211.324H889.692C885.126 203.137 880.246 193.375 878.514 182.512L876.152 180.465C858.676 185.031 837.422 185.188 818.686 180.465L816.324 182.512C814.593 193.06 809.554 203.451 805.146 211.324H775.075ZM826.558 159.21L828.133 160.785C839.941 156.534 854.898 156.219 866.548 160.785L868.123 159.21C859.463 145.198 853.481 133.075 850.804 111.348H844.034C841.043 132.918 835.217 145.198 826.558 159.21Z" fill="#F03619"/>
<path d="M927.92 211.324V88.5191H960.51C978.458 114.654 994.36 142.049 1006.33 174.01H1011.36C1023.49 141.734 1039.86 113.552 1057.18 88.5191H1089.77V211.324H1060.33C1060.33 188.652 1059.54 165.036 1066.31 132.918H1062.85C1046.47 165.665 1030.57 189.597 1017.82 211.324H999.87C988.377 191.801 970.901 165.193 954.842 132.918H951.378C958.148 162.989 957.361 188.967 957.361 211.324H927.92Z" fill="#F03619"/>
<path d="M1112.39 211.324V88.5191H1141.36V211.324H1112.39Z" fill="#F03619"/>
</svg>
