<svg width="878" height="300" viewBox="0 0 878 300" fill="none" xmlns="http://www.w3.org/2000/svg">
<path d="M352.568 213.792C323.284 213.792 300.927 199.465 294 177.266L320.923 168.449C326.748 185.138 339.815 188.444 352.096 188.444C364.849 188.444 376.027 184.036 376.027 176.636C376.027 168.134 362.645 164.828 351.466 161.994L338.241 158.687C324.071 155.224 299.038 146.879 299.038 123.263C299.038 100.906 321.395 85.792 350.049 85.792C378.389 85.792 396.809 100.749 401.375 114.131L374.925 124.523C370.517 116.021 362.172 110.983 349.577 110.983C337.454 110.983 329.267 115.548 329.267 121.059C329.267 128.931 344.381 133.024 354.615 135.701L370.202 139.794C383.269 143.258 406.728 149.713 406.728 173.33C406.728 195.686 385.946 213.792 352.568 213.792Z" fill="#F03619"/>
<path d="M440.189 211.115H410.118L465.852 88.3111H499.702L555.437 211.115H524.736C520.17 202.929 515.289 193.167 513.557 182.304L511.196 180.257C501.592 182.776 491.988 183.721 482.699 183.721C473.095 183.721 463.806 182.776 453.729 180.257L451.368 182.304C449.636 192.852 444.598 203.243 440.189 211.115ZM461.601 159.002L463.176 160.577C470.103 158.058 476.558 157.27 482.699 157.27C488.681 157.27 495.137 158.058 501.592 160.577L503.166 159.002C494.507 144.99 488.524 132.867 485.847 111.14H479.077C476.086 132.71 470.261 144.99 461.601 159.002Z" fill="#F03619"/>
<path d="M619.576 211.115H590.764C590.764 197.418 590.764 183.721 592.496 170.023C573.13 141.999 556.442 115.548 539.28 88.3111H570.296C582.734 107.519 593.44 124.208 603.359 148.454H606.823C616.899 123.735 628.392 106.259 639.886 88.3111H670.902C652.009 118.225 635.792 144.045 617.844 169.708C619.576 183.563 619.576 197.261 619.576 211.115Z" fill="#F03619"/>
<path d="M684.962 211.115H654.891L710.625 88.3111H744.475L800.209 211.115H769.508C764.942 202.929 760.061 193.167 758.33 182.304L755.968 180.257C746.364 182.776 736.76 183.721 727.471 183.721C717.867 183.721 708.578 182.776 698.502 180.257L696.14 182.304C694.408 192.852 689.37 203.243 684.962 211.115ZM706.374 159.002L707.948 160.577C714.876 158.058 721.331 157.27 727.471 157.27C733.454 157.27 739.909 158.058 746.364 160.577L747.938 159.002C739.279 144.99 733.296 132.867 730.62 111.14H723.85C720.859 132.71 715.033 144.99 706.374 159.002Z" fill="#F03619"/>
<path fill-rule="evenodd" clip-rule="evenodd" d="M190.572 205.374C177.583 218.513 158.923 224.355 140.761 220.967L88.8812 211.292L78.1134 159.573C74.4387 141.467 79.9837 122.716 92.9154 109.521L109.568 92.5379C122.557 79.3988 141.217 73.5574 159.379 76.9448L211.259 86.6206L222.027 138.339C225.701 156.446 220.156 175.196 207.225 188.391L190.572 205.374ZM101.662 101.421L181.443 117.055L198.478 196.491L118.697 180.857L101.662 101.421Z" fill="#F03619"/>
<path d="M150.179 168.366C139.587 168.366 131 159.777 131 149.183C131 138.589 139.587 130 150.179 130C160.771 130 169.357 138.589 169.357 149.183C169.357 159.777 160.771 168.366 150.179 168.366Z" fill="#F03619"/>
</svg>
