<svg width="931" height="300" viewBox="0 0 931 300" fill="none" xmlns="http://www.w3.org/2000/svg">
<path d="M119.351 98.6751C112.931 117.983 115.374 139.04 125.826 156.282L125.878 156.249L146.012 183.934L144.8 184.68C138.638 177.089 130.954 172.809 123.877 170.542C120.465 169.684 116.903 169.235 113.247 169.212L76.7773 168.978L102.331 204.355C110.394 215.517 123.296 222.165 137.064 222.251L173.365 222.479L173.381 222.5L181.905 196.185C187.866 177.786 184.663 157.646 173.29 142.004L157.814 120.576L154.424 116.092L155.622 115.324C164.016 125.28 174.999 129.358 183.601 130.659C184.615 130.733 185.638 130.773 186.668 130.78L223.222 131.021L197.658 95.6297C189.597 84.4697 176.697 77.8224 162.93 77.7341L126.39 77.5L126.391 77.5008L119.351 98.6751Z" fill="#F03619"/>
<path d="M352.228 214C322.944 214 300.588 199.673 293.66 177.474L320.583 168.657C326.408 185.346 339.476 188.652 351.756 188.652C364.509 188.652 375.687 184.244 375.687 176.844C375.687 168.342 362.305 165.036 351.126 162.202L337.901 158.895C323.731 155.432 298.698 147.087 298.698 123.471C298.698 101.114 321.055 86 349.709 86C378.049 86 396.47 100.957 401.035 114.339L374.585 124.731C370.177 116.229 361.832 111.191 349.237 111.191C337.114 111.191 328.927 115.756 328.927 121.267C328.927 129.139 344.041 133.232 354.275 135.909L369.862 140.002C382.93 143.466 406.388 149.921 406.388 173.538C406.388 195.894 385.606 214 352.228 214Z" fill="#F03619"/>
<path d="M494.412 214C453.477 214 419.784 188.18 419.784 150.079C419.784 111.978 453.319 86 494.412 86C535.819 86 569.039 112.293 569.039 150.079C569.039 187.55 535.976 214 494.412 214ZM494.569 187.707C519.602 187.707 538.495 171.648 538.495 150.079C538.495 129.139 520.075 112.293 494.569 112.293C469.693 112.293 450.171 128.194 450.171 150.079C450.171 172.435 470.008 187.707 494.569 187.707Z" fill="#F03619"/>
<path d="M694.435 211.324H579.975V188.652C604.536 162.831 630.041 139.058 665.781 109.774L664.049 106.625C630.829 112.608 606.268 114.339 582.179 114.339V88.5191H693.018V111.663C667.355 138.113 641.85 160.942 607.37 190.069L609.102 193.218C642.637 187.235 668.615 185.503 694.435 185.503V211.324Z" fill="#F03619"/>
<path d="M780.082 214C739.147 214 705.455 188.18 705.455 150.079C705.455 111.978 738.99 86 780.082 86C821.489 86 854.709 112.293 854.709 150.079C854.709 187.55 821.647 214 780.082 214ZM780.239 187.707C805.273 187.707 824.166 171.648 824.166 150.079C824.166 129.139 805.745 112.293 780.239 112.293C755.364 112.293 735.841 128.194 735.841 150.079C735.841 172.435 755.679 187.707 780.239 187.707Z" fill="#F03619"/>
</svg>
